# xmcd
#
# Track frame offsets: 
#        150
#        17421
#        32759
#        63368
#        76402
#        87814
#        102924
#        124382
#        126239
#        135512
#        146176
#        160833
#        173228
#        187258
#        199153
#        210892
#        216045
#
# Disc length: 3739 seconds
#
# Revision: 0
# Processed by: cddbd v1.5.2PL0 Copyright (c) Steve Scherf et al.
# Submitted via: ExactAudioCopy v0.95b4
#
DISCID=f00e9911
DTITLE=Canned Heat - Living the Blues
DYEAR=1989
DGENRE=Blues
TTITLE0=Canned Heat - Pony Blues
TTITLE1=Canned Heat - My Mistake
TTITLE2=Canned Heat - Sandy's Blues
TTITLE3=Canned Heat - Going Up the Country
TTITLE4=Canned Heat - Walking by Myself
TTITLE5=Canned Heat - Boogie Music
TTITLE6=Canned Heat - One Kind Favour
TTITLE7=Canned Heat - Parthenogenisis-Nebulosity
TTITLE8=Canned Heat - Rollin' and Tumblin'
TTITLE9=Canned Heat - Five Owls
TTITLE10=Canned Heat - bear Wires
TTITLE11=Canned Heat - Snooky Flowers
TTITLE12=Canned Heat - Sunflower Power
TTITLE13=Canned Heat - Raga Kafi
TTITLE14=Canned Heat - Icebag
TTITLE15=Canned Heat - Childhood's
TTITLE16=Canned Heat - Refried Boogy (Pt. 1)
EXTD=
EXTT0=
EXTT1=
EXTT2=
EXTT3=
EXTT4=
EXTT5=
EXTT6=
EXTT7=
EXTT8=
EXTT9=
EXTT10=
EXTT11=
EXTT12=
EXTT13=
EXTT14=
EXTT15=
EXTT16=
PLAYORDER=
